<svg width="32" height="32" viewBox="0 0 32 32" fill="none" xmlns="http://www.w3.org/2000/svg">
<g clip-path="url(#clip0_20_486)">
<path d="M22.0382 9.07459C18.4666 5.50298 12.6462 5.50298 9.07458 9.07459C5.50297 12.6462 5.50297 18.4666 9.07458 22.0382C12.6462 25.6098 18.4666 25.6098 22.0382 22.0382C25.6098 18.4666 25.6098 12.6462 22.0382 9.07459ZM16.2178 18.202C16.2178 18.5989 15.8871 18.9296 15.4903 18.9296C15.2918 18.8634 15.1596 18.8634 15.0273 18.7312C14.895 18.5989 14.8288 18.4005 14.8288 18.2682L14.8288 16.2839L12.8446 16.284C12.4478 16.2839 12.1171 15.9532 12.1171 15.5564C12.1171 15.1596 12.4478 14.8288 12.8446 14.8288L14.8288 14.8288L14.8288 12.8446C14.8288 12.4478 15.1596 12.1171 15.5564 12.1171C15.9532 12.1171 16.2839 12.4478 16.2839 12.8446L16.2839 14.8288L18.2682 14.8288C18.665 14.8288 18.9957 15.1596 18.9957 15.5564C18.9957 15.9532 18.665 16.2839 18.2682 16.284L16.2839 16.2839L16.2178 18.202Z" fill="#A0C9A2"/>
</g>
<defs>
<clipPath id="clip0_20_486">
<rect width="22" height="22" fill="white" transform="translate(15.5564) rotate(45)"/>
</clipPath>
</defs>
</svg>
