<svg width="15" height="15" viewBox="0 0 15 15" fill="none" xmlns="http://www.w3.org/2000/svg">
<path fill-rule="evenodd" clip-rule="evenodd" d="M4.28541 1.44029C5.18263 1.3556 6.49884 1.25 7.5 1.25C8.50116 1.25 9.81737 1.3556 10.7146 1.44029C11.561 1.52019 12.2181 2.19384 12.2811 3.03236C12.3702 4.21824 12.5 6.1924 12.5 7.64793C12.5 8.76374 12.4238 10.1822 12.3484 11.3147C12.3106 11.8824 12.2728 12.3811 12.2445 12.7379C12.2303 12.9163 12.2185 13.0593 12.2102 13.1579L12.2005 13.2712L12.1972 13.3104L12.1971 13.311C12.1971 13.3111 12.1971 13.3111 11.7151 13.2692L12.1971 13.311C12.1829 13.4721 12.0882 13.6153 11.9451 13.6922C11.802 13.769 11.6295 13.7693 11.4862 13.6928L7.57629 11.6071C7.52865 11.5817 7.47135 11.5817 7.42371 11.6071L3.51383 13.6928C3.37048 13.7693 3.19804 13.769 3.0549 13.6922C2.91176 13.6153 2.81708 13.4721 2.80291 13.3111L3.28495 13.2692C2.80291 13.3111 2.80292 13.3111 2.80291 13.3111L2.79946 13.2712L2.78982 13.1579C2.78153 13.0593 2.76971 12.9163 2.75553 12.7379C2.72718 12.3811 2.68939 11.8824 2.65159 11.3147C2.57619 10.1822 2.5 8.76374 2.5 7.64793C2.5 6.1924 2.62977 4.21824 2.71888 3.03236C2.78189 2.19384 3.43898 1.52019 4.28541 1.44029ZM3.70737 12.4982L6.96594 10.7599C7.29946 10.582 7.70054 10.582 8.03406 10.7599L11.2926 12.4982C11.3188 12.1624 11.3508 11.7317 11.3828 11.2512C11.4579 10.1226 11.5323 8.73042 11.5323 7.64793C11.5323 6.23187 11.4052 4.28954 11.3161 3.10395C11.2879 2.72875 10.9961 2.43273 10.6231 2.39752C9.72821 2.31305 8.45153 2.21154 7.5 2.21154C6.54847 2.21154 5.27179 2.31305 4.37693 2.39752C4.0039 2.43273 3.71213 2.72875 3.68393 3.10395C3.59485 4.28954 3.46774 6.23187 3.46774 7.64793C3.46774 8.73042 3.54209 10.1226 3.61722 11.2512C3.64921 11.7317 3.68121 12.1624 3.70737 12.4982Z" fill="#A0C9A2"/>
</svg>
