<svg width="15" height="15" viewBox="0 0 15 15" fill="none" xmlns="http://www.w3.org/2000/svg">
<path d="M15 8.41026C15 10.5897 14.6815 13.9231 14.6815 14.0513C14.6815 14.1795 14.5541 14.3718 14.4268 14.4359C14.3631 14.5 14.2994 14.5 14.172 14.5C14.1083 14.5 14.0446 14.5 13.9172 14.4359L10.0318 12.3846C9.96815 12.3846 9.90446 12.3846 9.90446 12.3846L6.01911 14.4359C5.89172 14.5 5.70064 14.5 5.57325 14.4359C5.44586 14.3718 5.31847 14.2436 5.31847 14.0513C5.31847 13.9231 5 10.5897 5 8.41026C5.06369 7 5.19108 5.14103 5.31847 3.79487C5.38217 2.96154 6.01911 2.32051 6.84713 2.19231C7.73885 2.12821 9.01274 2 10.0318 2C11.051 2 12.3248 2.12821 13.2166 2.19231C14.0446 2.25641 14.6815 2.96154 14.7452 3.79487C14.8726 5.14103 15 7 15 8.41026Z" fill="#A0C9A2"/>
</svg>
