<svg width="22" height="22" viewBox="0 0 22 22" fill="none" xmlns="http://www.w3.org/2000/svg">
<path d="M10.9999 1.83325C5.9489 1.83325 1.83325 5.9489 1.83325 10.9999C1.83325 16.0509 5.9489 20.1666 10.9999 20.1666C16.0509 20.1666 20.1666 16.0509 20.1666 10.9999C20.1666 5.9489 16.0509 1.83325 10.9999 1.83325ZM13.3384 12.403C13.619 12.6836 13.619 13.1513 13.3384 13.4319C13.1513 13.5254 13.0577 13.619 12.8707 13.619C12.6836 13.619 12.4965 13.5254 12.403 13.4319L10.9999 12.0288L9.59686 13.4319C9.31625 13.7125 8.84856 13.7125 8.56795 13.4319C8.28733 13.1513 8.28733 12.6836 8.56795 12.403L9.97101 10.9999L8.56795 9.59686C8.28733 9.31625 8.28733 8.84856 8.56795 8.56795C8.84856 8.28733 9.31625 8.28733 9.59686 8.56795L10.9999 9.97101L12.403 8.56795C12.6836 8.28733 13.1513 8.28733 13.4319 8.56795C13.7125 8.84856 13.7125 9.31625 13.4319 9.59686L12.0288 10.9999L13.3384 12.403Z" fill="#F87070"/>
</svg>
