<svg width="15" height="15" viewBox="0 0 15 15" fill="none" xmlns="http://www.w3.org/2000/svg">
<path d="M4.375 7.5C4.375 8.53553 3.53553 9.375 2.5 9.375C1.46447 9.375 0.624999 8.53553 0.625 7.5C0.625 6.46447 1.46447 5.625 2.5 5.625C3.53553 5.625 4.375 6.46447 4.375 7.5ZM1.85745 7.5C1.85745 7.85487 2.14513 8.14255 2.5 8.14255C2.85487 8.14255 3.14255 7.85487 3.14255 7.5C3.14255 7.14513 2.85487 6.85745 2.5 6.85745C2.14513 6.85745 1.85745 7.14513 1.85745 7.5Z" fill="#BABABA"/>
<path d="M9.375 7.5C9.375 8.53554 8.53553 9.375 7.5 9.375C6.46447 9.375 5.625 8.53553 5.625 7.5C5.625 6.46447 6.46447 5.625 7.5 5.625C8.53553 5.625 9.375 6.46447 9.375 7.5ZM6.85745 7.5C6.85745 7.85487 7.14513 8.14255 7.5 8.14255C7.85487 8.14255 8.14255 7.85487 8.14255 7.5C8.14255 7.14513 7.85487 6.85745 7.5 6.85745C7.14513 6.85745 6.85745 7.14513 6.85745 7.5Z" fill="#BABABA"/>
<path d="M14.375 7.5C14.375 8.53554 13.5355 9.375 12.5 9.375C11.4645 9.375 10.625 8.53554 10.625 7.5C10.625 6.46447 11.4645 5.625 12.5 5.625C13.5355 5.625 14.375 6.46447 14.375 7.5ZM11.8575 7.5C11.8575 7.85487 12.1451 8.14255 12.5 8.14255C12.8549 8.14255 13.1425 7.85487 13.1425 7.5C13.1425 7.14513 12.8549 6.85745 12.5 6.85745C12.1451 6.85745 11.8575 7.14513 11.8575 7.5Z" fill="#BABABA"/>
</svg>
