<svg width="44" height="44" viewBox="0 0 44 44" fill="none" xmlns="http://www.w3.org/2000/svg">
<path d="M39.2544 10.812C39.1623 9.5995 38.6364 8.46074 37.7731 7.60433C36.9098 6.74792 35.7668 6.2312 34.5536 6.1488C33.3313 6.05478 31.9399 5.96077 30.4732 5.88555V9.77786C30.4732 10.6506 30.1265 11.4876 29.5094 12.1047C28.8923 12.7218 28.0553 13.0685 27.1826 13.0685C26.3099 13.0685 25.4729 12.7218 24.8558 12.1047C24.2387 11.4876 23.892 10.6506 23.892 9.77786V5.54709H19.1912V9.77786C19.1912 10.6506 18.8445 11.4876 18.2274 12.1047C17.6103 12.7218 16.7733 13.0685 15.9006 13.0685C15.0278 13.0685 14.1909 12.7218 13.5738 12.1047C12.9566 11.4876 12.61 10.6506 12.61 9.77786V5.88555C11.1433 5.88555 9.75184 6.05478 8.51082 6.1488C7.3054 6.22953 6.16993 6.74383 5.31423 7.59666C4.45053 8.45636 3.92352 9.59711 3.82876 10.812C3.54671 14.2907 3.20825 19.236 3.20825 22.9403C3.20825 26.6445 3.54671 31.5898 3.82876 35.0873C3.92465 36.2935 4.44976 37.4253 5.3088 38.2775C6.16784 39.1296 7.30389 39.6456 8.51082 39.7317C11.5758 39.9574 17.3108 40.3334 21.5416 40.3334C25.7724 40.3334 31.5074 39.9574 34.5536 39.7317C35.7638 39.6499 36.9044 39.1358 37.7673 38.2833C38.6302 37.4307 39.158 36.2965 39.2544 35.0873C39.5365 31.5898 39.8749 26.6445 39.8749 22.9403C39.8749 19.236 39.5365 14.2907 39.2544 10.812ZM21.5416 29.0514H14.0202C13.6462 29.0514 13.2875 28.9028 13.023 28.6383C12.7585 28.3738 12.61 28.0151 12.61 27.6411C12.61 27.2671 12.7585 26.9084 13.023 26.6439C13.2875 26.3794 13.6462 26.2309 14.0202 26.2309H21.5416C21.9156 26.2309 22.2743 26.3794 22.5388 26.6439C22.8033 26.9084 22.9518 27.2671 22.9518 27.6411C22.9518 28.0151 22.8033 28.3738 22.5388 28.6383C22.2743 28.9028 21.9156 29.0514 21.5416 29.0514ZM29.063 21.53H14.0202C13.6462 21.53 13.2875 21.3814 13.023 21.1169C12.7585 20.8525 12.61 20.4938 12.61 20.1197C12.61 19.7457 12.7585 19.387 13.023 19.1225C13.2875 18.8581 13.6462 18.7095 14.0202 18.7095H29.063C29.437 18.7095 29.7957 18.8581 30.0602 19.1225C30.3246 19.387 30.4732 19.7457 30.4732 20.1197C30.4732 20.4938 30.3246 20.8525 30.0602 21.1169C29.7957 21.3814 29.437 21.53 29.063 21.53Z" fill="#A0C9A2"/>
<path d="M17.3108 5.077V9.77786C17.3108 10.1519 17.1622 10.5106 16.8978 10.7751C16.6333 11.0395 16.2746 11.1881 15.9006 11.1881C15.5265 11.1881 15.1678 11.0395 14.9034 10.7751C14.6389 10.5106 14.4903 10.1519 14.4903 9.77786V5.077C14.4903 4.70298 14.6389 4.34428 14.9034 4.0798C15.1678 3.81533 15.5265 3.66675 15.9006 3.66675C16.2746 3.66675 16.6333 3.81533 16.8978 4.0798C17.1622 4.34428 17.3108 4.70298 17.3108 5.077Z" fill="#A0C9A2"/>
<path d="M28.5929 5.077V9.77786C28.5929 10.1519 28.4443 10.5106 28.1798 10.7751C27.9153 11.0395 27.5566 11.1881 27.1826 11.1881C26.8086 11.1881 26.4499 11.0395 26.1854 10.7751C25.9209 10.5106 25.7724 10.1519 25.7724 9.77786V5.077C25.7724 4.70298 25.9209 4.34428 26.1854 4.0798C26.4499 3.81533 26.8086 3.66675 27.1826 3.66675C27.5566 3.66675 27.9153 3.81533 28.1798 4.0798C28.4443 4.34428 28.5929 4.70298 28.5929 5.077Z" fill="#A0C9A2"/>
</svg>
